<svg width="48" height="32" viewBox="0 0 48 32" fill="none" xmlns="http://www.w3.org/2000/svg">
<path d="M41.3785 0H5.75757C2.58299 0 0 2.58299 0 5.75757V26.2424C0 29.417 2.58299 32 5.75757 32H41.3785C44.5531 32 47.1361 29.417 47.1361 26.2424V5.7582C47.1367 2.58299 44.5537 0 41.3785 0ZM38.5651 3.75616L23.568 13.4183L8.57094 3.75616H38.5651ZM41.3785 28.2445H5.75757C4.65388 28.2445 3.75616 27.3461 3.75616 26.2431V5.86462L22.4093 17.8593C22.4343 17.875 22.4612 17.8856 22.4869 17.9C22.5138 17.915 22.5414 17.9294 22.5689 17.9432C22.7135 18.0177 22.8625 18.0778 23.0146 18.1172C23.0303 18.1216 23.0459 18.1235 23.0616 18.1272C23.2287 18.1667 23.3978 18.1911 23.5668 18.1911H23.568C23.5693 18.1911 23.5705 18.1911 23.5705 18.1911C23.7396 18.1911 23.9086 18.1673 24.0757 18.1272C24.0914 18.1235 24.1071 18.1216 24.1227 18.1172C24.2748 18.0778 24.4232 18.0177 24.5684 17.9432C24.596 17.9294 24.6235 17.915 24.6504 17.9C24.6761 17.8856 24.703 17.875 24.7281 17.8593L43.3812 5.86462V26.2424C43.3805 27.3461 42.4822 28.2445 41.3785 28.2445Z" fill="#6AB708"/>
</svg>
