<svg width="36" height="36" viewBox="0 0 36 36" fill="none" xmlns="http://www.w3.org/2000/svg">
<path fill-rule="evenodd" clip-rule="evenodd" d="M17.9989 0C8.05948 0 0 8.26244 0 18.457C0 26.6099 5.15699 33.5274 12.3109 35.9682C13.2109 36.1377 13.5394 35.5679 13.5394 35.0788C13.5394 34.6405 13.5236 33.4801 13.5146 31.9402C8.50723 33.0556 7.45088 29.466 7.45088 29.466C6.63301 27.3343 5.45288 26.7668 5.45288 26.7668C3.81826 25.6214 5.57661 25.6444 5.57661 25.6444C7.38224 25.7747 8.33286 27.5465 8.33286 27.5465C9.93936 30.3668 12.546 29.5524 13.572 29.0795C13.7351 27.8868 14.2009 27.0736 14.715 26.6122C10.7179 26.1462 6.51599 24.5636 6.51599 17.4915C6.51599 15.4764 7.21688 13.8292 8.36888 12.5384C8.18326 12.0713 7.56564 10.1957 8.54439 7.65457C8.54439 7.65457 10.0564 7.15855 13.4944 9.54628C14.931 9.13679 16.47 8.93262 18.0011 8.92455C19.53 8.93262 21.0701 9.13679 22.5079 9.54628C25.9436 7.15855 27.4523 7.65457 27.4523 7.65457C28.4344 10.1957 27.8167 12.0713 27.6311 12.5384C28.7854 13.8292 29.4818 15.4764 29.4818 17.4915C29.4818 24.5809 25.2731 26.1415 21.2636 26.5983C21.9094 27.1682 22.4854 28.294 22.4854 30.0162C22.4854 32.4835 22.4629 34.4732 22.4629 35.0788C22.4629 35.5725 22.7869 36.1469 23.7004 35.9658C30.8475 33.5204 36 26.6076 36 18.457C36 8.26244 27.9405 0 17.9989 0Z" fill="#6AB708"/>
</svg>
