<svg width="55" height="48" viewBox="0 0 55 48" fill="none" xmlns="http://www.w3.org/2000/svg">
<path d="M52.3365 0H2.66346C1.1923 0 0 1.19243 0 2.66346V33.826C0 35.297 1.1923 36.4895 2.66346 36.4895H21.2409V42.5249H14.0118C12.6533 42.5249 11.5481 43.6301 11.5481 44.9886C11.5481 46.3471 12.6533 47.4523 14.0118 47.4523H40.9882C42.3467 47.4523 43.4519 46.3471 43.4519 44.9886C43.4519 43.6301 42.3467 42.5249 40.9882 42.5249H33.7591V36.4895H52.3365C53.8077 36.4895 55 35.297 55 33.826V2.66346C55 1.19243 53.8077 0 52.3365 0ZM51.0048 32.4943H3.9952V3.9952H51.0048V32.4943Z" fill="#70DA1C"/>
<path d="M12.5971 19.7495L20.9982 23.6562C21.2154 23.7568 21.4465 23.8078 21.6856 23.8078C21.997 23.8078 22.3003 23.7193 22.5641 23.5515C23.0366 23.2496 23.3187 22.7352 23.3187 22.1752V22.1323C23.3187 21.4996 22.9478 20.9184 22.3737 20.6516L17.1193 18.2105L22.3738 15.7689C22.9478 15.502 23.3187 14.9207 23.3187 14.2883V14.2458C23.3187 13.685 23.0365 13.1706 22.5643 12.8696C22.303 12.7026 21.9987 12.6144 21.6845 12.6144C21.4477 12.6144 21.21 12.6665 20.9974 12.7653L12.5969 16.6716C12.0232 16.9386 11.6526 17.5197 11.6526 18.152V18.269C11.6525 18.9005 12.0229 19.4815 12.5971 19.7495Z" fill="#b6f829"/>
<path d="M23.3934 27.7068C23.6998 28.1262 24.1927 28.3765 24.7119 28.3765H24.7539C25.4666 28.3765 26.0912 27.9203 26.3083 27.2424L31.8426 10.0951C32.0013 9.60006 31.9131 9.05391 31.6067 8.63362C31.3003 8.21426 30.8074 7.96376 30.2882 7.96376H30.2463C29.5333 7.96376 28.9082 8.42001 28.691 9.09786L23.1561 26.2467C22.9987 26.7421 23.0874 27.2877 23.3934 27.7068Z" fill="#b6f829"/>
<path d="M31.6813 14.2882C31.6813 14.9202 32.0518 15.5014 32.6261 15.7693L37.8805 18.2104L32.6261 20.6514C32.052 20.9183 31.6812 21.4995 31.6812 22.1322V22.1751C31.6812 22.7351 31.9631 23.2495 32.4361 23.5515C32.699 23.7191 33.0026 23.8076 33.3144 23.8076C33.553 23.8076 33.7841 23.7566 34.0028 23.6556L42.4035 19.7489C42.977 19.4814 43.3475 18.9003 43.3475 18.2687V18.1518C43.3475 17.5195 42.9769 16.9383 42.4029 16.6713L34.0024 12.7648C33.7905 12.6664 33.5532 12.6142 33.3163 12.6142C33.0022 12.6142 32.6978 12.7023 32.4368 12.8688C31.9635 13.1703 31.6813 13.6847 31.6813 14.2455V14.2882Z" fill="#b6f829"/>
</svg>
